<svg width="180" height="180" viewBox="0 0 180 180" fill="none" xmlns="http://www.w3.org/2000/svg">
  <defs>
    <linearGradient id="prosperaGradient" x1="20" y1="20" x2="160" y2="160" gradientUnits="userSpaceOnUse">
      <stop stop-color="#1B8D76"/>
      <stop offset="1" stop-color="#0F4C81"/>
    </linearGradient>
  </defs>
  <rect x="12" y="12" width="156" height="156" rx="42" fill="url(#prosperaGradient)"/>
  <path d="M57 52C57 45.3726 62.3726 40 69 40H97.5C120.5 40 136 54.6 136 76.5C136 95 124 108.6 106.5 111.5L120 138H101L88 111H76V138H57V52ZM76 92H95C106.5 92 113 85.5 113 76.5C113 67.5 106.5 61 95 61H76V92Z" fill="white"/>
  <circle cx="127" cy="49" r="11" fill="#F8C75A"/>
</svg>
